<svg xmlns="http://www.w3.org/2000/svg" width="2560" height="1440" viewBox="0 0 2560 1440"> <g style="isolation: isolate"> <g id="Artwork"> <polygon points="2560 941.4 2480 991 2437 961 2210 1121 2222 1167 2560 1202.74 2560 941.4" style="fill: #e6f7ff"/> <path d="M244,989C204,960,85,823,69,801L1,854.21v367.21L210,1304l189-144S284,1018,244,989Z" style="fill: #e6f7ff;mix-blend-mode: multiply"/> <path d="M69,801L1,854.21V986l20-32,50,103,44-92,40,53,68.18-46.8C172.85,924.07,82.77,819.94,69,801Z" style="fill: #e6f7ff;opacity: 0.45;mix-blend-mode: screen"/> <path d="M320,1294V1172s198-33.67,354,40,464.22,59,518,52,301.34-74.39,539-60c247.67,15,323.67,33.67,509-12.33V1294S321.33,1295,320,1294Z" style="fill: #e6f7ff;mix-blend-mode: multiply"/> <rect x="320" y="1294" width="1920" height="146" style="fill: #caedff"/> <polygon points="794.5 1129 732 1401.73 794.5 1401.73 857 1401.73 794.5 1129" style="fill: #9bdaf3"/> <polygon points="1886.5 1133.27 1824 1406 1886.5 1406 1949 1406 1886.5 1133.27" style="fill: #9bdaf3"/> <polygon points="2163.23 942.27 2056.96 1406 2163.23 1406 2269.5 1406 2163.23 942.27" style="fill: #9bdaf3"/> <polygon points="2467.77 1002.27 2357 1406 2467.77 1406 2578.54 1406 2467.77 1002.27" style="fill: #9bdaf3"/> <polygon points="2278.77 1002.27 2168 1406 2278.77 1406 2389.54 1406 2278.77 1002.27" style="fill: #9bdaf3"/> <polygon points="493.21 1027.27 406.42 1406 493.21 1406 580 1406 493.21 1027.27" style="fill: #9bdaf3"/> <polygon points="294.21 949.27 207.42 1406 294.21 1406 381 1406 294.21 949.27" style="fill: #9bdaf3"/> <polygon points="142.79 1024 56 1406 142.79 1406 229.58 1406 142.79 1024" style="fill: #9bdaf3"/> <polygon points="81.79 951 -5 1406 81.79 1406 168.58 1406 81.79 951" style="fill: #9bdaf3"/> <polygon points="1712.5 1185 1672 1361.73 1712.5 1361.73 1753 1361.73 1712.5 1185" style="fill: #9bdaf3"/> <polygon points="1605 1206 1583 1302 1605 1302 1627 1302 1605 1206" style="fill: #caedff"/> <polygon points="1574 1227 1552 1323 1574 1323 1596 1323 1574 1227" style="fill: #caedff"/> <polygon points="1449 1250 1427 1346 1449 1346 1471 1346 1449 1250" style="fill: #caedff"/> <polygon points="1014 1207 992 1303 1014 1303 1036 1303 1014 1207" style="fill: #caedff"/> <polygon points="989 1235 967 1331 989 1331 1011 1331 989 1235" style="fill: #caedff"/> <polygon points="918 1223 896 1319 918 1319 940 1319 918 1223" style="fill: #caedff"/> <polygon points="660.5 1184 626.88 1330.73 660.5 1330.73 694.13 1330.73 660.5 1184" style="fill: #9bdaf3"/> <polygon points="1789.21 974 1682.42 1440 1789.21 1440 1896 1440 1789.21 974" style="fill: #65c3e8"/> <polygon points="1969.38 906 1847 1440 1969.38 1440 2091.75 1440 1969.38 906" style="fill: #65c3e8"/> <polygon points="2087.44 833 1948.33 1440 2087.44 1440 2226.54 1440 2087.44 833" style="fill: #65c3e8"/> <polygon points="2375.6 847 2207 1440 2375.6 1440 2544.21 1440 2375.6 847" style="fill: #65c3e8"/> <polygon points="2237.58 873 2107.64 1440 2237.58 1440 2367.51 1440 2237.58 873" style="fill: #65c3e8"/> <polygon points="2538.94 873 2409 1440 2538.94 1440 2668.88 1440 2538.94 873" style="fill: #65c3e8"/> <polygon points="584.79 995.82 483 1440 584.79 1440 686.58 1440 584.79 995.82" style="fill: #65c3e8"/> <polygon points="444.42 893.82 319.25 1440 444.42 1440 569.58 1440 444.42 893.82" style="fill: #65c3e8"/> <polygon points="344.17 909.54 222.61 1440 344.17 1440 465.73 1440 344.17 909.54" style="fill: #65c3e8"/> <polygon points="222.44 822.54 88.88 1440 222.44 1440 356 1440 222.44 822.54" style="fill: #65c3e8"/> <polygon points="44.56 898 -89 1440 44.56 1440 178.13 1440 44.56 898" style="fill: #65c3e8"/> <polygon points="718.5 1066.91 633 1440 718.5 1440 804 1440 718.5 1066.91" style="fill: #65c3e8"/> <g> <rect x="1362" y="1311" width="38" height="6" style="fill: #34b3e4"/> <path d="M1399,1312v4h-36v-4h36m2-2h-40v8h40v-8h0Z" style="fill: #005e93"/> </g> <g> <rect x="1365" y="1305" width="38" height="6" style="fill: #9bdaf3"/> <path d="M1402,1306v4h-36v-4h36m2-2h-40v8h40v-8h0Z" style="fill: #005e93"/> </g> <g> <path d="M1173,1323v-26.29l-6.79-10.66,2-2.65,4.8,3.6v-9a1,1,0,0,1,1-1h28a1,1,0,0,1,1,1v45h-30Z" style="fill: #9bdaf3"/> <path d="M1202,1278v44h-28v-25.58l-0.31-.49-6.26-9.83,1-1.29,2.4,1.8,3.2,2.4v-11h28m0-2h-28a2,2,0,0,0-2,2v7l-4-3-3,4,7,11v27h32v-46a2,2,0,0,0-2-2h0Z" style="fill: #005e93"/> </g> <rect x="1178" y="1301" width="2" height="21" style="fill: #005e93"/> <rect x="1184" y="1318" width="2" height="4" style="fill: #005e93"/> <rect x="1184" y="1282" width="2" height="4" style="fill: #005e93"/> <rect x="1184" y="1290" width="2" height="19" style="fill: #005e93"/> <rect x="1190" y="1314" width="2" height="8" style="fill: #005e93"/> <rect x="1190" y="1280" width="2" height="13" style="fill: #005e93"/> <rect x="1190" y="1301" width="2" height="9" style="fill: #005e93"/> <rect x="1178" y="1290" width="2" height="8" style="fill: #005e93"/> <rect x="1178" y="1278" width="2" height="6" style="fill: #005e93"/> <rect x="1196" y="1278" width="2" height="12" style="fill: #005e93"/> <rect x="1196" y="1292" width="2" height="9" style="fill: #005e93"/> <rect x="1196" y="1304" width="2" height="15" style="fill: #005e93"/> <rect x="1356" y="1316" width="50" height="2" style="fill: #9bdaf3"/> <g> <g> <path d="M1162,1323a1,1,0,0,1-1-1v-26a1,1,0,0,1,1-1h18v28h-18Z" style="fill: #e1e9ee"/> <path d="M1179,1296v26h-17v-26h17m2-2h-19a2,2,0,0,0-2,2v26a2,2,0,0,0,2,2h19v-30h0Z" style="fill: #005e93"/> </g> <rect x="1164" y="1298" width="15" height="22" style="fill: #fff"/> <g> <path d="M1180,1323v-28h18a1,1,0,0,1,1,1v26a1,1,0,0,1-1,1h-18Z" style="fill: #e1e9ee"/> <path d="M1198,1296v26h-17v-26h17m0-2h-19v30h19a2,2,0,0,0,2-2v-26a2,2,0,0,0-2-2h0Z" style="fill: #005e93"/> </g> <rect x="1181" y="1298" width="15" height="22" transform="translate(2377 2618) rotate(-180)" style="fill: #fff"/> <rect x="1166" y="1304" width="11" height="2" style="fill: #e1e9ee"/> <rect x="1166" y="1308" width="11" height="2" style="fill: #e1e9ee"/> <rect x="1166" y="1312" width="6" height="2" style="fill: #e1e9ee"/> <polygon points="1177 1316 1175 1314 1173 1316 1173 1298 1177 1298 1177 1316" style="fill: #65c3e8"/> <rect x="1166" y="1300" width="5" height="2" style="fill: #e1e9ee"/> <rect x="1183" y="1304" width="11" height="2" style="fill: #e1e9ee"/> <rect x="1183" y="1308" width="11" height="2" style="fill: #e1e9ee"/> <rect x="1183" y="1312" width="11" height="2" style="fill: #e1e9ee"/> <rect x="1183" y="1316" width="8" height="2" style="fill: #e1e9ee"/> <rect x="1183" y="1300" width="5" height="2" style="fill: #e1e9ee"/> </g> <rect x="1156" y="1322" width="52" height="2" style="fill: #9bdaf3"/> <rect x="1377" y="1306" width="14" height="4" style="fill: #65c3e8"/> <rect x="1367" y="1312" width="14" height="4" style="fill: #0084bf"/> <g> <polygon points="995.25 1359 996.87 1351.7 1007.12 1347.04 1016.24 1348.87 1018.15 1354.61 1024 1359 995.25 1359" style="fill: #e1e9ee"/> <path d="M1007.24,1348.09l8.23,1.65,1.63,4.9,0.2,0.59,0.5,0.38,3.2,2.4H996.49l1.24-5.59,9.5-4.32M1007,1346l-11,5-2,9h33l-8-6-2-6-10-2h0Z" style="fill: #acb9c2"/> </g> <g> <polygon points="966.28 1352 966.9 1349.51 970.36 1346.05 977.38 1346.93 980.28 1352 966.28 1352" style="fill: #e1e9ee"/> <path d="M970.72,1347.11l6,0.75,1.79,3.14h-11l0.24-1,2.92-2.92M970,1345l-4,4-1,4h17l-4-7-8-1h0Z" style="fill: #acb9c2"/> </g> <rect x="991" y="1358" width="38" height="2" style="fill: #9bdaf3"/> <g> <polygon points="1522.26 1357 1524.89 1345.57 1533.47 1338.9 1548.96 1334.06 1566.28 1340.79 1574.38 1357 1522.26 1357" style="fill: #e1e9ee"/> <path d="M1548.93,1335.12l16.63,6.47,7.21,14.42h-49.25l2.27-9.86,8.15-6.34,15-4.68M1549,1333l-16,5-9,7-3,13h55l-9-18-18-7h0Z" style="fill: #acb9c2"/> </g> <rect x="1516" y="1356" width="66" height="2" style="fill: #9bdaf3"/> <rect x="963" y="1351" width="20" height="2" style="fill: #9bdaf3"/> </g> </g> </svg>