<?xml version="1.0" encoding="UTF-8"?>
<svg id="Layer_1" data-name="Layer 1" xmlns="http://www.w3.org/2000/svg" viewBox="0 0 398 183.625">
  <defs>
    <style>
      .cls-1 {
        fill: #fff;
      }

      .cls-2 {
        fill: #0a66c2;
      }
    </style>
  </defs>
  <rect class="cls-2" x="1.592" y="7.66602" width="174.30979" height="135.718" rx="5" ry="5"/>
  <g>
    <path class="cls-1" d="M12.39111,26.27344H45.38477c20.45312,0,36.12891,7.16602,36.12891,29.11182,0,14.77979-7.61426,23.88672-19.25879,27.91748l23.14014,40.60742h-19.85596l-20.90088-37.91992h-14.48096v37.91992H12.39111V26.27344Zm31.20215,45.53369c13.28711,0,20.45312-5.52393,20.45312-16.42188,0-11.04785-7.16602-14.9292-20.45312-14.9292h-13.43604v31.35107h13.43604Z"/>
    <path class="cls-1" d="M98.6792,96.44043V50.4585h17.6167v43.74268c0,11.94336,3.43359,16.42188,11.19678,16.42188,6.41943,0,10.59961-2.98584,15.97412-10.00244V50.4585h17.6167V123.91016h-14.48145l-1.34375-10.74902h-.44775c-6.41943,7.61426-13.43652,12.54004-23.58789,12.54004-15.67578,0-22.54346-10.74854-22.54346-29.26074Z"/>
    <path class="cls-2" d="M182.729,50.4585h14.48145l1.34326,9.85303h.44824c6.56885-6.27002,14.0332-11.64453,24.03613-11.64453,15.8252,0,22.69238,10.74902,22.69238,29.26123v45.98193h-17.61719v-43.74268c0-11.94336-3.43359-16.27295-11.19629-16.27295-6.41992,0-10.59961,2.98633-16.42236,8.95801v51.05762h-17.76562V50.4585Z"/>
    <path class="cls-2" d="M261.55176,137.19727c0-6.27051,3.88184-11.49609,10.59961-15.67578v-.59766c-3.73242-2.38867-6.71777-6.26953-6.71777-12.24121,0-5.67334,3.88184-10.6001,8.21094-13.58594v-.59717c-5.07617-3.73193-9.7041-10.74902-9.7041-19.40771,0-16.87012,13.73535-26.4248,29.1123-26.4248,4.03027,0,7.91211,.74658,10.89844,1.7915h26.27539v13.1377h-13.1377c2.23926,2.68701,4.03027,7.16602,4.03027,12.09277,0,16.27295-12.54004,24.93164-28.06641,24.93164-3.13574,0-6.56934-.59717-9.85352-1.7915-2.08984,1.7915-3.43359,3.58301-3.43359,6.86719,0,4.03125,2.98535,6.41992,11.79395,6.41992h12.98828c17.46777,0,26.87305,5.52344,26.87305,18.21387,0,14.48047-15.22852,25.97656-39.26465,25.97656-17.4668,0-30.60449-6.27051-30.60449-19.10938Zm52.84961-4.03125c0-5.52344-4.47852-7.16602-12.69043-7.16602h-9.85254c-4.03125,0-7.16602-.29883-10.00293-1.04492-3.88184,2.98633-5.52344,6.12109-5.52344,9.55469,0,6.56934,7.16602,10.30078,18.51172,10.30078,11.64453,0,19.55762-5.37402,19.55762-11.64453Zm-8.95801-58.07422c0-9.10693-5.37402-14.18262-12.39062-14.18262s-12.54102,5.07568-12.54102,14.18262c0,9.25586,5.67383,14.48145,12.54102,14.48145s12.39062-5.22559,12.39062-14.48145Z"/>
    <path class="cls-2" d="M337.09082,114.95264l7.7627-10.00244c6.41992,5.2251,13.13867,7.46436,20.60254,7.46436,7.76367,0,11.49609-3.58301,11.49609-8.50928,0-6.12109-7.16602-8.50977-15.37793-11.49561-10.59961-3.88184-20.45215-10.00244-20.45215-21.64746,0-12.83936,10.4502-22.09521,26.87207-22.09521,10.00293,0,18.5127,3.73242,24.48438,8.95752l-7.61426,10.00244c-5.22559-3.88135-10.59961-5.67285-16.42188-5.67285-7.31543,0-10.59961,3.58301-10.59961,7.91211,0,5.375,5.22461,7.46484,14.48145,10.6001,11.3457,3.88135,21.34863,9.70361,21.34863,22.39355s-10.15234,22.84131-28.81348,22.84131c-10.15234,0-20.60254-3.88086-27.76855-10.74854Z"/>
  </g>
</svg>